# xmcd
#
# Track frame offsets:
#	151
#	13364
#	24501
#	35465
#	44159
#	53736
#	67770
#	80202
#	98056
#	113887
#	122061
#	127429
#	134929
#	145236
#	157343
#	166269
#	176130
#	193325
#	208053
#	224633
#	237230
#
# Disc length: 3332 seconds
#
# Revision: 1
# Processed by: cddbd v1.5.1PL0 Copyright (c) Steve Scherf et al.
# Submitted via: audiograbber 1.83.01
#
DISCID=570d0215
DTITLE=Rhonda Vincent - Yesterday and Today - 30 Years of Music
DYEAR=1998
DGENRE=Country
TTITLE0=How Far Is Heaven (1967)
TTITLE1=Muleskinner Blues (1971)
TTITLE2=Satisfied (1971)
TTITLE3=Joshua (1974)
TTITLE4=Rocky Top (1975)
TTITLE5=Bluegrass Melodies (1976)
TTITLE6=Roses In The Snow (1980)
TTITLE7=I Came On Business For The King (1981)
TTITLE8=The One Who Cares About You (1983)
TTITLE9=String Happy (1983)
TTITLE10=Rosery Waltz (1983)
TTITLE11=Lavender Lullaby (1983)
TTITLE12=I Need Jesus (1983)
TTITLE13=Sheltered In The Arms Of God (1985)
TTITLE14=Wash My Sins Away (1985)
TTITLE15=Where We'll Never Say Farewell (1985)
TTITLE16=Ghost Of A Chance (1997)
TTITLE17=Just When I Needed You Most (1998)
TTITLE18=I Sang Dixie (1998)
TTITLE19=Leona's Song (1998)
TTITLE20=How Far Is Heaven (1998)
EXTD=
EXTT0=
EXTT1=
EXTT2=
EXTT3=
EXTT4=
EXTT5=
EXTT6=
EXTT7=
EXTT8=
EXTT9=
EXTT10=
EXTT11=
EXTT12=
EXTT13=
EXTT14=
EXTT15=
EXTT16=
EXTT17=
EXTT18=
EXTT19=
EXTT20=
PLAYORDER=
